# xmcd
#
# Track frame offsets:
# 150
# 16484
# 36082
# 52568
# 77592
# 91035
# 108792
# 122460
# 136333
# 170400
# 191548
# 209732
# 227814
# 247207
# 266132
# 283302
# 301530
# 324950
#
# Disc length: 4655 seconds
#
#
# Revision: 0
# Processed by: cddbd v1.5.1PL2 Copyright (c) Steve Scherf et al.
# Submitted via: FreeRIP 2.944 
#
DISCID=eb122d12
DTITLE=Joss Stone - Greatest Hits
DYEAR=1900
DGENRE=Soul
TTITLE0=The chokin' kind
TTITLE1=Super duper love
TTITLE2=Fell in love with a boy
TTITLE3=Victim of a foolish heart
TTITLE4=Dirty man
TTITLE5=Some kind of wonderful
TTITLE6=I had a dream
TTITLE7=All the king's horses
TTITLE8=For the love of you
TTITLE9=Right to be wrong
TTITLE10=Let lag
TTITLE11=You had me
TTITLE12=Less is more
TTITLE13=Young at heart
TTITLE14=Understand
TTITLE15=Don't know now
TTITLE16=Killing time
TTITLE17=Sleep like a child
EXTD=
EXTT0=
EXTT1=
EXTT2=
EXTT3=
EXTT4=
EXTT5=
EXTT6=
EXTT7=
EXTT8=
EXTT9=
EXTT10=
EXTT11=
EXTT12=
EXTT13=
EXTT14=
EXTT15=
EXTT16=
EXTT17=
PLAYORDER=
